# Blender v3.0.1 OBJ File: ''
# www.blender.org
mtllib hand.mtl
o cube
v -0.062500 -0.000000 0.187500
v 0.187500 -0.000000 0.187500
v 0.187500 0.750000 0.187500
v -0.062500 0.750000 0.187500
v -0.062500 0.000000 -0.062500
v -0.062500 0.750000 -0.062500
v 0.187500 0.000000 -0.062500
v 0.187500 0.750000 -0.062500
vt 0.250000 0.000000
vt 0.500000 0.000000
vt 0.500000 0.750000
vt 0.250000 0.750000
vt 0.000000 0.000000
vt 0.000000 0.750000
vt 0.750000 0.000000
vt 1.000000 0.000000
vt 1.000000 0.750000
vt 0.750000 0.750000
vt 0.500000 1.000000
vt 0.250000 1.000000
vt 0.750000 0.750000
vt 0.500000 0.750000
vt 0.500000 1.000000
vt 0.750000 1.000000
vn 0.0000 -0.0000 1.0000
vn -1.0000 0.0000 0.0000
vn 0.0000 0.0000 -1.0000
vn 1.0000 0.0000 0.0000
vn 0.0000 1.0000 0.0000
vn 0.0000 -1.0000 -0.0000
usemtl m_0
s 1
f 1/1/1 2/2/1 3/3/1 4/4/1
f 5/5/2 1/1/2 4/4/2 6/6/2
f 7/7/3 5/8/3 6/9/3 8/10/3
f 2/2/4 7/7/4 8/10/4 3/3/4
f 8/11/5 6/12/5 4/4/5 3/3/5
f 2/13/6 1/14/6 5/15/6 7/16/6
