<?xml version="1.0" standalone="no"?><!-- Generator: Gravit.io --><svg xmlns="http://www.w3.org/2000/svg" xmlns:xlink="http://www.w3.org/1999/xlink" style="isolation:isolate" viewBox="0 0 256 256" width="256" height="256"><defs><clipPath id="_clipPath_z7Hv8RU3kGkpvtqnaJc86ObsDZHG9OjO"><rect width="256" height="256"/></clipPath></defs><g clip-path="url(#_clipPath_z7Hv8RU3kGkpvtqnaJc86ObsDZHG9OjO)"><rect width="256" height="256" style="fill:rgb(200,200,200)"/><g id="Group"><path d=" M 125.708 218.795 C 124.728 225.157 124.731 232.827 125.708 241.797 L 199.122 180.938 L 201.709 163.087 C 173.74 180.442 148.41 199.015 125.708 218.795 Z " fill="rgb(149,149,149)"/><path d=" M 125.708 218.795 L 125.708 241.797 L 56.623 179.269 L 54.134 161.735 C 77.128 176.783 100.989 195.806 125.708 218.795 Z " fill="rgb(130,129,129)"/><path d=" M 125.708 218.795 L 54.134 161.735 L 126.887 134.175 L 201.709 163.087 L 125.708 218.795 Z " fill="rgb(174,174,174)"/><path d=" M 142.234 162.173 L 127.289 170.281 C 126.424 162.658 126.293 153.407 126.887 142.518 L 142.234 147.047 L 142.234 162.173 Z " fill="rgb(149,149,149)"/><path d=" M 127.289 170.281 L 112.587 162.173 L 112.163 144.808 L 126.887 142.518 L 127.289 170.281 Z " fill="rgb(130,129,129)"/><path d=" M 103.652 151.572 L 126.887 142.518 C 127.457 137.753 127.46 132.876 126.887 127.877 L 102.498 121.476 C 101.915 131.296 102.303 141.331 103.652 151.572 Z " fill="rgb(149,149,149)"/><path d=" M 126.887 142.518 L 126.442 122.965 L 150.235 121.56 C 150.939 131.163 150.579 141.313 149.146 152.001 L 126.887 142.518 Z " fill="rgb(130,129,129)"/><path d=" M 63.995 74.324 L 64.367 77.855 L 75.532 76.455 C 71.544 75.472 67.702 74.765 63.995 74.324 Z " fill="rgb(130,129,129)"/><path d=" M 200.037 104.444 C 204.154 103.296 207.745 102.034 210.802 100.647 L 199.36 98.809 L 200.037 104.444 Z " fill="rgb(174,174,174)"/><path d=" M 192.434 74.677 L 192.191 78.01 L 181.373 76.455 C 184.939 75.663 188.629 75.074 192.434 74.677 Z " fill="rgb(149,149,149)"/><path d=" M 63.995 74.324 L 75.532 76.455 L 52.632 78.201 C 76.266 84.008 100.627 88.747 125.708 92.41 C 154.063 88.745 179.928 84.012 203.292 78.201 L 181.373 76.455 L 192.434 74.677 L 164.047 71.96 L 89.549 72.469 L 63.995 74.324 Z " fill="rgb(174,174,174)"/><path d=" M 125.708 92.41 C 124.907 104.741 124.998 117.183 125.971 130.176 L 150.235 121.56 L 149.146 152.001 L 208.094 122.965 L 210.802 100.647 L 200.037 104.444 L 203.292 78.201 L 125.708 92.41 Z " fill="rgb(149,149,149)"/><path d=" M 55.776 104.042 C 51.72 103.012 48.197 101.77 45.198 100.306 L 58.204 98.086 L 55.776 104.042 Z " fill="rgb(174,174,174)"/><path d=" M 125.708 92.41 L 52.632 78.201 L 55.776 104.042 L 45.198 100.306 L 48.141 122.232 L 103.652 151.572 L 102.498 121.476 L 125.971 130.176 L 125.708 92.41 Z " fill="rgb(130,129,129)"/><path d=" M 104.46 14.455 L 86.2 17.97 L 89.549 78.01 L 106.476 80.71 C 106.742 59.546 106.073 37.464 104.46 14.455 Z " fill="rgb(130,129,129)"/><path d=" M 127.503 17.879 L 104.46 14.455 L 106.476 80.71 L 127.767 78.777 C 128.477 58.024 128.392 37.727 127.503 17.879 Z " fill="rgb(149,149,149)"/><path d=" M 150.235 14.203 L 169.253 17.879 L 165.166 78.396 L 148.051 81.366 C 147.652 57.903 148.383 35.518 150.235 14.203 Z " fill="rgb(149,149,149)"/><path d=" M 127.503 17.879 L 127.767 78.777 L 148.051 81.366 L 150.235 14.203 L 127.503 17.879 Z " fill="rgb(130,129,129)"/></g></g></svg>