# Blender 4.1.1
# www.blender.org
o cube.010
v -2.750000 0.437500 -0.187500
v -2.937500 0.437500 -0.187500
v -2.937500 0.812500 -0.187500
v -2.750000 0.812500 -0.187500
v -2.750000 0.437500 0.187500
v -2.750000 0.812500 0.187500
v -2.937500 0.437500 0.187500
v -2.937500 0.812500 0.187500
vn -0.0000 -0.0000 -1.0000
vn -0.0000 -1.0000 -0.0000
vn 1.0000 -0.0000 -0.0000
vn -0.0000 -0.0000 1.0000
vn -1.0000 -0.0000 -0.0000
vn -0.0000 1.0000 -0.0000
vt 0.468750 0.941406
vt 0.480469 0.941406
vt 0.480469 0.964844
vt 0.468750 0.964844
vt 0.000000 0.976562
vt 0.011719 0.976562
vt 0.011719 1.000000
vt 0.000000 1.000000
vt 0.023438 0.976562
vt 0.023438 1.000000
s 1
f 1/1/1 2/2/1 3/3/1 4/4/1
f 2/5/2 1/6/2 5/7/2 7/8/2
f 5/5/3 1/9/3 4/10/3 6/8/3
f 7/5/4 5/6/4 6/7/4 8/8/4
f 2/5/5 7/9/5 8/10/5 3/8/5
f 8/5/6 6/6/6 4/7/6 3/8/6
o cube.011
v -2.500000 1.000000 -0.187500
v -3.187500 1.000000 -0.187500
v -3.187500 1.375000 -0.187500
v -2.500000 1.375000 -0.187500
v -2.500000 1.000000 0.187500
v -2.500000 1.375000 0.187500
v -3.187500 1.000000 0.187500
v -3.187500 1.375000 0.187500
vn -0.0000 -0.0000 -1.0000
vn 1.0000 -0.0000 -0.0000
vn -0.0000 -1.0000 -0.0000
vn -0.0000 -0.0000 1.0000
vn -1.0000 -0.0000 -0.0000
vn -0.0000 1.0000 -0.0000
vt 0.453125 0.976562
vt 0.496094 0.976562
vt 0.496094 1.000000
vt 0.453125 1.000000
vt 0.460938 0.976562
vt 0.484375 0.976562
vt 0.484375 1.000000
vt 0.460938 1.000000
vt 0.000000 0.976562
vt 0.042969 0.976562
vt 0.042969 1.000000
vt 0.000000 1.000000
vt 0.023438 0.976562
vt 0.023438 1.000000
s 1
f 9/11/7 10/12/7 11/13/7 12/14/7
f 13/15/8 9/16/8 12/17/8 14/18/8
f 10/11/9 9/12/9 13/13/9 15/14/9
f 15/19/10 13/20/10 14/21/10 16/22/10
f 10/19/11 15/23/11 16/24/11 11/22/11
f 16/19/12 14/20/12 12/21/12 11/22/12
o cube.012
v -2.375000 -0.000000 -0.187500
v -2.750000 -0.000000 -0.187500
v -2.750000 1.187500 -0.187500
v -2.375000 1.187500 -0.187500
v -2.375000 0.000000 0.187500
v -2.375000 1.187500 0.187500
v -2.750000 0.000000 0.187500
v -2.750000 1.187500 0.187500
vn -0.0000 -0.0000 -1.0000
vn 1.0000 -0.0000 -0.0000
vn -0.0000 -1.0000 -0.0000
vn -0.0000 -0.0000 1.0000
vn -1.0000 -0.0000 -0.0000
vn -0.0000 1.0000 -0.0000
vt 0.445312 0.914062
vt 0.468750 0.914062
vt 0.468750 0.988281
vt 0.445312 0.988281
vt 0.464844 0.976562
vt 0.488281 0.976562
vt 0.488281 1.000000
vt 0.464844 1.000000
vt 0.000000 0.925781
vt 0.023438 0.925781
vt 0.023438 1.000000
vt 0.000000 1.000000
vt 0.000000 0.976562
vt 0.023438 0.976562
s 1
f 17/25/13 18/26/13 19/27/13 20/28/13
f 21/25/14 17/26/14 20/27/14 22/28/14
f 18/29/15 17/30/15 21/31/15 23/32/15
f 23/33/16 21/34/16 22/35/16 24/36/16
f 18/33/17 23/34/17 24/35/17 19/36/17
f 24/37/18 22/38/18 20/35/18 19/36/18
o cube.013
v -2.937500 -0.000000 -0.187500
v -3.312500 -0.000000 -0.187500
v -3.312500 1.187500 -0.187500
v -2.937500 1.187500 -0.187500
v -2.937500 0.000000 0.187500
v -2.937500 1.187500 0.187500
v -3.312500 0.000000 0.187500
v -3.312500 1.187500 0.187500
vn -0.0000 -0.0000 -1.0000
vn 1.0000 -0.0000 -0.0000
vn -0.0000 -1.0000 -0.0000
vn -0.0000 -0.0000 1.0000
vn -1.0000 -0.0000 -0.0000
vn -0.0000 1.0000 -0.0000
vt 0.480469 0.914062
vt 0.503906 0.914062
vt 0.503906 0.988281
vt 0.480469 0.988281
vt 0.460938 0.976562
vt 0.484375 0.976562
vt 0.484375 1.000000
vt 0.460938 1.000000
vt 0.000000 0.925781
vt 0.023438 0.925781
vt 0.023438 1.000000
vt 0.000000 1.000000
vt 0.000000 0.976562
vt 0.023438 0.976562
s 1
f 25/39/19 26/40/19 27/41/19 28/42/19
f 29/39/20 25/40/20 28/41/20 30/42/20
f 26/43/21 25/44/21 29/45/21 31/46/21
f 31/47/22 29/48/22 30/49/22 32/50/22
f 26/47/23 31/48/23 32/49/23 27/50/23
f 32/51/24 30/52/24 28/49/24 27/50/24
