# Blender 4.1.1
# www.blender.org
o cube.002
v 4.812500 -0.000000 -0.187500
v 4.250000 -0.000000 -0.187500
v 4.250000 0.375000 -0.187500
v 4.812500 0.375000 -0.187500
v 4.812500 0.000000 0.187500
v 4.812500 0.375000 0.187500
v 4.250000 0.000000 0.187500
v 4.250000 0.375000 0.187500
vn -0.0000 -0.0000 -1.0000
vn -1.0000 -0.0000 -0.0000
vn -0.0000 -1.0000 -0.0000
vn 1.0000 -0.0000 -0.0000
vn -0.0000 -0.0000 1.0000
vn -0.0000 1.0000 -0.0000
vt 0.023438 0.914062
vt 0.058594 0.914062
vt 0.058594 0.937500
vt 0.023438 0.937500
vt 0.000000 0.976562
vt 0.023438 0.976562
vt 0.023438 1.000000
vt 0.000000 1.000000
vt 0.035156 0.976562
vt 0.035156 1.000000
s 1
f 1/1/1 2/2/1 3/3/1 4/4/1
f 2/5/2 7/6/2 8/7/2 3/8/2
f 2/5/3 1/9/3 5/10/3 7/8/3
f 5/5/4 1/6/4 4/7/4 6/8/4
f 7/5/5 5/9/5 6/10/5 8/8/5
f 8/5/6 6/9/6 4/10/6 3/8/6
o cube.003
v 4.812500 1.000000 -0.187500
v 4.250000 1.000000 -0.187500
v 4.250000 1.375000 -0.187500
v 4.812500 1.375000 -0.187500
v 4.812500 1.000000 0.187500
v 4.812500 1.375000 0.187500
v 4.250000 1.000000 0.187500
v 4.250000 1.375000 0.187500
vn -0.0000 -0.0000 -1.0000
vn -1.0000 -0.0000 -0.0000
vn -0.0000 -1.0000 -0.0000
vn 1.0000 -0.0000 -0.0000
vn -0.0000 -0.0000 1.0000
vn -0.0000 1.0000 -0.0000
vt 0.023438 0.976562
vt 0.058594 0.976562
vt 0.058594 1.000000
vt 0.023438 1.000000
vt 0.000000 0.976562
vt 0.000000 1.000000
vt 0.035156 0.976562
vt 0.035156 1.000000
s 1
f 9/11/7 10/12/7 11/13/7 12/14/7
f 10/15/8 15/11/8 16/14/8 11/16/8
f 10/15/9 9/17/9 13/18/9 15/16/9
f 13/15/10 9/11/10 12/14/10 14/16/10
f 15/15/11 13/17/11 14/18/11 16/16/11
f 16/15/12 14/17/12 12/18/12 11/16/12
o cube.004
v 5.187500 -0.000000 -0.187500
v 4.812500 -0.000000 -0.187500
v 4.812500 1.375000 -0.187500
v 5.187500 1.375000 -0.187500
v 5.187500 0.000000 0.187500
v 5.187500 1.375000 0.187500
v 4.812500 0.000000 0.187500
v 4.812500 1.375000 0.187500
vn -0.0000 -0.0000 -1.0000
vn -1.0000 -0.0000 -0.0000
vn -0.0000 -1.0000 -0.0000
vn 1.0000 -0.0000 -0.0000
vn -0.0000 -0.0000 1.0000
vn -0.0000 1.0000 -0.0000
vt 0.000000 0.914062
vt 0.023438 0.914062
vt 0.023438 1.000000
vt 0.000000 1.000000
vt 0.000000 0.976562
vt 0.023438 0.976562
s 1
f 17/19/13 18/20/13 19/21/13 20/22/13
f 18/19/14 23/20/14 24/21/14 19/22/14
f 18/23/15 17/24/15 21/21/15 23/22/15
f 21/19/16 17/20/16 20/21/16 22/22/16
f 23/19/17 21/20/17 22/21/17 24/22/17
f 24/23/18 22/24/18 20/21/18 19/22/18
