# Blender 4.1.1
# www.blender.org
o cube.007
v -3.812500 1.000000 -0.187500
v -4.375000 1.000000 -0.187500
v -4.375000 1.375000 -0.187500
v -3.812500 1.375000 -0.187500
v -3.812500 1.000000 0.187500
v -3.812500 1.375000 0.187500
v -4.375000 1.000000 0.187500
v -4.375000 1.375000 0.187500
vn -0.0000 -0.0000 -1.0000
vn -0.0000 -1.0000 -0.0000
vn 1.0000 -0.0000 -0.0000
vn -0.0000 -0.0000 1.0000
vn -1.0000 -0.0000 -0.0000
vn -0.0000 1.0000 -0.0000
vt 0.531250 0.976562
vt 0.566406 0.976562
vt 0.566406 1.000000
vt 0.531250 1.000000
vt 0.148438 0.851562
vt 0.183594 0.851562
vt 0.183594 0.875000
vt 0.148438 0.875000
vt 0.000000 0.976562
vt 0.023438 0.976562
vt 0.023438 1.000000
vt 0.000000 1.000000
vt 0.035156 0.976562
vt 0.035156 1.000000
s 1
f 1/1/1 2/2/1 3/3/1 4/4/1
f 2/5/2 1/6/2 5/7/2 7/8/2
f 5/9/3 1/10/3 4/11/3 6/12/3
f 7/9/4 5/13/4 6/14/4 8/12/4
f 2/9/5 7/10/5 8/11/5 3/12/5
f 8/9/6 6/13/6 4/14/6 3/12/6
o cube.008
v -3.812500 0.500000 -0.187500
v -4.125000 0.500000 -0.187500
v -4.125000 0.875000 -0.187500
v -3.812500 0.875000 -0.187500
v -3.812500 0.500000 0.187500
v -3.812500 0.875000 0.187500
v -4.125000 0.500000 0.187500
v -4.125000 0.875000 0.187500
vn -0.0000 -0.0000 -1.0000
vn -0.0000 -1.0000 -0.0000
vn 1.0000 -0.0000 -0.0000
vn -0.0000 -0.0000 1.0000
vn -1.0000 -0.0000 -0.0000
vn -0.0000 1.0000 -0.0000
vt 0.531250 0.945312
vt 0.550781 0.945312
vt 0.550781 0.968750
vt 0.531250 0.968750
vt 0.144531 0.855469
vt 0.164062 0.855469
vt 0.164062 0.878906
vt 0.144531 0.878906
vt 0.000000 0.976562
vt 0.023438 0.976562
vt 0.023438 1.000000
vt 0.000000 1.000000
vt 0.019531 0.976562
vt 0.019531 1.000000
s 1
f 9/15/7 10/16/7 11/17/7 12/18/7
f 10/19/8 9/20/8 13/21/8 15/22/8
f 13/23/9 9/24/9 12/25/9 14/26/9
f 15/23/10 13/27/10 14/28/10 16/26/10
f 10/23/11 15/24/11 16/25/11 11/26/11
f 16/23/12 14/27/12 12/28/12 11/26/12
o cube.009
v -3.437500 -0.000000 -0.187500
v -3.812500 -0.000000 -0.187500
v -3.812500 1.375000 -0.187500
v -3.437500 1.375000 -0.187500
v -3.437500 0.000000 0.187500
v -3.437500 1.375000 0.187500
v -3.812500 0.000000 0.187500
v -3.812500 1.375000 0.187500
vn -0.0000 -0.0000 -1.0000
vn 1.0000 -0.0000 -0.0000
vn -0.0000 -1.0000 -0.0000
vn -0.0000 -0.0000 1.0000
vn -1.0000 -0.0000 -0.0000
vn -0.0000 1.0000 -0.0000
vt 0.507812 0.914062
vt 0.531250 0.914062
vt 0.531250 1.000000
vt 0.507812 1.000000
vt 0.507812 0.917969
vt 0.531250 0.917969
vt 0.531250 0.941406
vt 0.507812 0.941406
vt 0.000000 0.914062
vt 0.023438 0.914062
vt 0.023438 1.000000
vt 0.000000 1.000000
vt 0.000000 0.976562
vt 0.023438 0.976562
s 1
f 17/29/13 18/30/13 19/31/13 20/32/13
f 21/29/14 17/30/14 20/31/14 22/32/14
f 18/33/15 17/34/15 21/35/15 23/36/15
f 23/37/16 21/38/16 22/39/16 24/40/16
f 18/37/17 23/38/17 24/39/17 19/40/17
f 24/41/18 22/42/18 20/39/18 19/40/18
