# Blender 4.1.1
# www.blender.org
o cube.024
v 1.500000 0.375000 -0.187500
v 1.375000 0.375000 -0.187500
v 1.375000 0.750000 -0.187500
v 1.500000 0.750000 -0.187500
v 1.500000 0.375000 0.187500
v 1.500000 0.750000 0.187500
v 1.375000 0.375000 0.187500
v 1.375000 0.750000 0.187500
vn -0.0000 -0.0000 -1.0000
vn -0.0000 -1.0000 -0.0000
vn 1.0000 -0.0000 -0.0000
vn -0.0000 -0.0000 1.0000
vn -1.0000 -0.0000 -0.0000
vn -0.0000 1.0000 -0.0000
vt 0.218750 0.937500
vt 0.226562 0.937500
vt 0.226562 0.960938
vt 0.218750 0.960938
vt 0.191406 0.953125
vt 0.199219 0.953125
vt 0.199219 0.976562
vt 0.191406 0.976562
vt 0.000000 0.976562
vt 0.023438 0.976562
vt 0.023438 1.000000
vt 0.000000 1.000000
vt 0.007812 0.976562
vt 0.007812 1.000000
s 1
f 1/1/1 2/2/1 3/3/1 4/4/1
f 2/5/2 1/6/2 5/7/2 7/8/2
f 5/9/3 1/10/3 4/11/3 6/12/3
f 7/9/4 5/13/4 6/14/4 8/12/4
f 2/9/5 7/10/5 8/11/5 3/12/5
f 8/9/6 6/13/6 4/14/6 3/12/6
o cube.025
v 1.625000 0.625000 -0.187500
v 1.500000 0.625000 -0.187500
v 1.500000 1.000000 -0.187500
v 1.625000 1.000000 -0.187500
v 1.625000 0.625000 0.187500
v 1.625000 1.000000 0.187500
v 1.500000 0.625000 0.187500
v 1.500000 1.000000 0.187500
vn -0.0000 -0.0000 -1.0000
vn -1.0000 -0.0000 -0.0000
vn -0.0000 -1.0000 -0.0000
vn 1.0000 -0.0000 -0.0000
vn -0.0000 -0.0000 1.0000
vn -0.0000 1.0000 -0.0000
vt 0.210938 0.953125
vt 0.218750 0.953125
vt 0.218750 0.976562
vt 0.210938 0.976562
vt 0.105469 0.609375
vt 0.128906 0.609375
vt 0.128906 0.632812
vt 0.105469 0.632812
vt 0.101562 0.609375
vt 0.109375 0.609375
vt 0.109375 0.632812
vt 0.101562 0.632812
vt 0.000000 0.976562
vt 0.023438 0.976562
vt 0.023438 1.000000
vt 0.000000 1.000000
vt 0.007812 0.976562
vt 0.007812 1.000000
s 1
f 9/15/7 10/16/7 11/17/7 12/18/7
f 10/19/8 15/20/8 16/21/8 11/22/8
f 10/23/9 9/24/9 13/25/9 15/26/9
f 13/27/10 9/28/10 12/29/10 14/30/10
f 15/27/11 13/31/11 14/32/11 16/30/11
f 16/27/12 14/31/12 12/32/12 11/30/12
o cube.026
v 2.000000 -0.000000 -0.187500
v 1.625000 -0.000000 -0.187500
v 1.625000 1.375000 -0.187500
v 2.000000 1.375000 -0.187500
v 2.000000 0.000000 0.187500
v 2.000000 1.375000 0.187500
v 1.625000 0.000000 0.187500
v 1.625000 1.375000 0.187500
vn -0.0000 -0.0000 -1.0000
vn -1.0000 -0.0000 -0.0000
vn -0.0000 -1.0000 -0.0000
vn 1.0000 -0.0000 -0.0000
vn -0.0000 -0.0000 1.0000
vn -0.0000 1.0000 -0.0000
vt 0.187500 0.914062
vt 0.210938 0.914062
vt 0.210938 1.000000
vt 0.187500 1.000000
vt 0.187500 0.964844
vt 0.210938 0.964844
vt 0.210938 0.988281
vt 0.187500 0.988281
vt 0.000000 0.914062
vt 0.023438 0.914062
vt 0.023438 1.000000
vt 0.000000 1.000000
vt 0.000000 0.976562
vt 0.023438 0.976562
s 1
f 17/33/13 18/34/13 19/35/13 20/36/13
f 18/33/14 23/34/14 24/35/14 19/36/14
f 18/37/15 17/38/15 21/39/15 23/40/15
f 21/41/16 17/42/16 20/43/16 22/44/16
f 23/41/17 21/42/17 22/43/17 24/44/17
f 24/45/18 22/46/18 20/43/18 19/44/18
o cube.027
v 1.375000 -0.000000 -0.187500
v 1.000000 -0.000000 -0.187500
v 1.000000 1.375000 -0.187500
v 1.375000 1.375000 -0.187500
v 1.375000 0.000000 0.187500
v 1.375000 1.375000 0.187500
v 1.000000 0.000000 0.187500
v 1.000000 1.375000 0.187500
vn -0.0000 -0.0000 -1.0000
vn -1.0000 -0.0000 -0.0000
vn -0.0000 -1.0000 -0.0000
vn 1.0000 -0.0000 -0.0000
vn -0.0000 -0.0000 1.0000
vn -0.0000 1.0000 -0.0000
vt 0.226562 0.914062
vt 0.250000 0.914062
vt 0.250000 1.000000
vt 0.226562 1.000000
vt 0.226562 0.972656
vt 0.250000 0.972656
vt 0.250000 0.996094
vt 0.226562 0.996094
vt 0.000000 0.914062
vt 0.023438 0.914062
vt 0.023438 1.000000
vt 0.000000 1.000000
vt 0.000000 0.976562
vt 0.023438 0.976562
s 1
f 25/47/19 26/48/19 27/49/19 28/50/19
f 26/47/20 31/48/20 32/49/20 27/50/20
f 26/51/21 25/52/21 29/53/21 31/54/21
f 29/55/22 25/56/22 28/57/22 30/58/22
f 31/55/23 29/56/23 30/57/23 32/58/23
f 32/59/24 30/60/24 28/57/24 27/58/24
