# Blender 4.1.1
# www.blender.org
o cube.005
v -4.500000 1.000000 -0.187500
v -5.500000 1.000000 -0.187500
v -5.500000 1.375000 -0.187500
v -4.500000 1.375000 -0.187500
v -4.500000 1.000000 0.187500
v -4.500000 1.375000 0.187500
v -5.500000 1.000000 0.187500
v -5.500000 1.375000 0.187500
vn -0.0000 -0.0000 -1.0000
vn 1.0000 -0.0000 -0.0000
vn -0.0000 -1.0000 -0.0000
vn -0.0000 -0.0000 1.0000
vn -1.0000 -0.0000 -0.0000
vn -0.0000 1.0000 -0.0000
vt 0.570312 0.976562
vt 0.632812 0.976562
vt 0.632812 1.000000
vt 0.570312 1.000000
vt 0.593750 0.976562
vt 0.617188 0.976562
vt 0.617188 1.000000
vt 0.593750 1.000000
vt 0.000000 0.976562
vt 0.062500 0.976562
vt 0.062500 1.000000
vt 0.000000 1.000000
vt 0.023438 0.976562
vt 0.023438 1.000000
s 1
f 1/1/1 2/2/1 3/3/1 4/4/1
f 5/5/2 1/6/2 4/7/2 6/8/2
f 2/1/3 1/2/3 5/3/3 7/4/3
f 7/9/4 5/10/4 6/11/4 8/12/4
f 2/9/5 7/13/5 8/14/5 3/12/5
f 8/9/6 6/10/6 4/11/6 3/12/6
o cube.006
v -4.812500 -0.000000 -0.187500
v -5.187500 -0.000000 -0.187500
v -5.187500 1.000000 -0.187500
v -4.812500 1.000000 -0.187500
v -4.812500 0.000000 0.187500
v -4.812500 1.000000 0.187500
v -5.187500 0.000000 0.187500
v -5.187500 1.000000 0.187500
vn -0.0000 -0.0000 -1.0000
vn 1.0000 -0.0000 -0.0000
vn -0.0000 -1.0000 -0.0000
vn -0.0000 -0.0000 1.0000
vn -1.0000 -0.0000 -0.0000
vn -0.0000 1.0000 -0.0000
vt 0.589844 0.914062
vt 0.613281 0.914062
vt 0.613281 0.976562
vt 0.589844 0.976562
vt 0.589844 0.921875
vt 0.613281 0.921875
vt 0.613281 0.984375
vt 0.589844 0.984375
vt 0.597656 0.976562
vt 0.621094 0.976562
vt 0.621094 1.000000
vt 0.597656 1.000000
vt 0.000000 0.937500
vt 0.023438 0.937500
vt 0.023438 1.000000
vt 0.000000 1.000000
vt 0.000000 0.976562
vt 0.023438 0.976562
s 1
f 9/15/7 10/16/7 11/17/7 12/18/7
f 13/19/8 9/20/8 12/21/8 14/22/8
f 10/23/9 9/24/9 13/25/9 15/26/9
f 15/27/10 13/28/10 14/29/10 16/30/10
f 10/27/11 15/28/11 16/29/11 11/30/11
f 16/31/12 14/32/12 12/29/12 11/30/12
