# Blender 4.2.1 LTS
# www.blender.org
o body
v 0.062500 0.625000 0.062500
v 0.062500 0.625000 0.937500
v 0.062500 0.000000 0.062500
v 0.062500 0.000000 0.937500
v 0.937500 0.625000 0.937500
v 0.937500 0.625000 0.062500
v 0.937500 0.000000 0.937500
v 0.937500 0.000000 0.062500
v 0.437500 0.687500 1.000000
v 0.437500 0.687500 0.937500
v 0.312500 0.687500 0.937500
v 0.437500 0.437500 0.937500
v 0.312500 0.437500 0.937500
v 0.312500 0.687500 1.000000
v 0.312500 0.437500 1.000000
v 0.437500 0.437500 1.000000
v 0.687500 0.687500 1.000000
v 0.687500 0.687500 0.937500
v 0.562500 0.687500 0.937500
v 0.687500 0.437500 0.937500
v 0.562500 0.437500 0.937500
v 0.562500 0.687500 1.000000
v 0.562500 0.437500 1.000000
v 0.687500 0.437500 1.000000
v 0.562500 0.562500 1.000000
v 0.562500 0.562500 0.937500
v 0.437500 0.562500 0.937500
v 0.562500 0.437500 0.937500
v 0.437500 0.437500 0.937500
v 0.437500 0.562500 1.000000
v 0.437500 0.437500 1.000000
v 0.562500 0.437500 1.000000
v 0.937500 0.875000 0.937500
v 0.937500 0.875000 0.062500
v 0.062500 0.875000 0.062500
v 0.937500 0.625000 0.062500
v 0.062500 0.625000 0.062500
v 0.062500 0.875000 0.937500
v 0.062500 0.625000 0.937500
v 0.937500 0.625000 0.937500
vn -1.0000 -0.0000 -0.0000
vn 1.0000 -0.0000 -0.0000
vn -0.0000 1.0000 -0.0000
vn -0.0000 -1.0000 -0.0000
vn -0.0000 -0.0000 -1.0000
vn -0.0000 -0.0000 1.0000
vt 0.000000 1.000000
vt 0.000000 0.843750
vt 0.218750 1.000000
vt 0.218750 0.843750
vt 0.656250 1.000000
vt 0.656250 0.781250
vt 0.875000 1.000000
vt 0.875000 0.781250
vt 0.218750 0.781250
vt 0.437500 1.000000
vt 0.437500 0.781250
vt 0.062500 0.843750
vt 0.062500 0.781250
vt 0.078125 0.843750
vt 0.078125 0.781250
vt 0.093750 0.843750
vt 0.093750 0.781250
vt 0.000000 0.781250
vt 0.000000 0.765625
vt 0.031250 0.781250
vt 0.031250 0.765625
vt 0.031250 0.843750
vt 0.062500 0.765625
vt 0.093750 0.765625
vt 0.093750 0.812500
vt 0.109375 0.812500
vt 0.109375 0.781250
vt 0.125000 0.843750
vt 0.125000 0.812500
vt 0.000000 0.703125
vt 0.218750 0.765625
vt 0.218750 0.703125
s 0
f 1/1/1 3/2/1 2/3/1
f 3/2/1 4/4/1 2/3/1
f 5/1/2 7/2/2 6/3/2
f 7/2/2 8/4/2 6/3/2
f 5/5/3 6/6/3 2/7/3
f 6/6/3 1/8/3 2/7/3
f 8/3/4 7/9/4 3/10/4
f 7/9/4 4/11/4 3/10/4
f 6/1/5 8/2/5 1/3/5
f 8/2/5 3/4/5 1/3/5
f 2/1/6 4/2/6 5/3/6
f 4/2/6 7/4/6 5/3/6
f 11/12/1 13/13/1 14/14/1
f 13/13/1 15/15/1 14/14/1
f 9/14/2 16/15/2 10/16/2
f 16/15/2 12/17/2 10/16/2
f 9/18/3 10/19/3 14/20/3
f 10/19/3 11/21/3 14/20/3
f 12/18/4 16/19/4 13/20/4
f 16/19/4 15/21/4 13/20/4
f 10/22/5 12/20/5 11/12/5
f 12/20/5 13/13/5 11/12/5
f 14/2/6 15/18/6 9/22/6
f 15/18/6 16/20/6 9/22/6
f 19/12/1 21/13/1 22/14/1
f 21/13/1 23/15/1 22/14/1
f 17/14/2 24/15/2 18/16/2
f 24/15/2 20/17/2 18/16/2
f 17/13/3 18/23/3 22/17/3
f 18/23/3 19/24/3 22/17/3
f 20/13/4 24/23/4 21/17/4
f 24/23/4 23/24/4 21/17/4
f 18/2/5 20/18/5 19/22/5
f 20/18/5 21/20/5 19/22/5
f 22/22/6 23/20/6 17/12/6
f 23/20/6 24/13/6 17/12/6
f 27/25/1 29/17/1 30/26/1
f 29/17/1 31/27/1 30/26/1
f 25/25/2 32/17/2 26/26/2
f 32/17/2 28/27/2 26/26/2
f 25/20/3 26/21/3 30/13/3
f 26/21/3 27/23/3 30/13/3
f 28/20/4 32/21/4 29/13/4
f 32/21/4 31/23/4 29/13/4
f 26/16/5 28/25/5 27/28/5
f 28/25/5 29/29/5 27/28/5
f 30/16/6 31/25/6 25/28/6
f 31/25/6 32/29/6 25/28/6
f 35/19/1 37/30/1 38/31/1
f 37/30/1 39/32/1 38/31/1
f 33/19/2 40/30/2 34/31/2
f 40/30/2 36/32/2 34/31/2
f 33/10/3 34/11/3 38/5/3
f 34/11/3 35/6/3 38/5/3
f 36/5/4 40/6/4 37/7/4
f 40/6/4 39/8/4 37/7/4
f 34/19/5 36/30/5 35/31/5
f 36/30/5 37/32/5 35/31/5
f 38/19/6 39/30/6 33/31/6
f 39/30/6 40/32/6 33/31/6
