# Blender v3.0.1 OBJ File: 'derg parts.blend'
# www.blender.org
mtllib derg_l_ear_frill.mtl
o learfrill_Mesh_5
v 0.000031 0.437500 0.312500
v 0.000031 0.437500 0.000000
v 0.000031 0.062500 0.312500
v 0.000031 0.062500 0.000000
vt 0.437744 0.000244
vt 0.437744 0.093506
vt 0.515381 0.000244
vt 0.515381 0.093506
vt 0.515869 0.000244
vt 0.515869 0.093506
vt 0.593506 0.000244
vt 0.593506 0.093506
vn 1.0000 0.0000 0.0000
vn -1.0000 0.0000 0.0000
usemtl Material_0
s off
f 1/1/1 3/2/1 2/3/1
f 3/2/1 4/4/1 2/3/1
f 2/5/2 4/6/2 1/7/2
f 4/6/2 3/8/2 1/7/2
