# Blender v3.0.1 OBJ File: 'derg parts.blend'
# www.blender.org
mtllib derg_r_arm.mtl
o rarm_Mesh_11
v 0.125000 0.375000 0.250000
v 0.125000 0.375000 0.000000
v 0.125000 0.000000 0.250000
v 0.125000 0.000000 0.000000
v -0.125000 0.375000 0.000000
v -0.125000 0.375000 0.250000
v -0.125000 0.000000 0.000000
v -0.125000 0.000000 0.250000
vt 0.000244 0.156494
vt 0.000244 0.249756
vt 0.062256 0.156494
vt 0.062256 0.249756
vt 0.125244 0.156494
vt 0.125244 0.249756
vt 0.187256 0.156494
vt 0.187256 0.249756
vt 0.124756 0.156006
vt 0.124756 0.093994
vt 0.062744 0.156006
vt 0.062744 0.093994
vt 0.187256 0.093994
vt 0.187256 0.156006
vt 0.125244 0.093994
vt 0.125244 0.156006
vt 0.187744 0.156494
vt 0.187744 0.249756
vt 0.249756 0.156494
vt 0.249756 0.249756
vt 0.062744 0.156494
vt 0.062744 0.249756
vt 0.124756 0.156494
vt 0.124756 0.249756
vn 1.0000 0.0000 0.0000
vn -1.0000 0.0000 0.0000
vn 0.0000 1.0000 0.0000
vn 0.0000 -1.0000 0.0000
vn 0.0000 0.0000 1.0000
vn 0.0000 0.0000 -1.0000
usemtl Material_0
s off
f 1/1/1 3/2/1 2/3/1
f 3/2/1 4/4/1 2/3/1
f 5/5/2 7/6/2 6/7/2
f 7/6/2 8/8/2 6/7/2
f 5/9/3 6/10/3 2/11/3
f 6/10/3 1/12/3 2/11/3
f 8/13/4 7/14/4 3/15/4
f 7/14/4 4/16/4 3/15/4
f 6/17/5 8/18/5 1/19/5
f 8/18/5 3/20/5 1/19/5
f 2/21/6 4/22/6 5/23/6
f 4/22/6 7/24/6 5/23/6
