# Blender v3.0.1 OBJ File: 'derg parts.blend'
# www.blender.org
mtllib derg_tail_frill.mtl
o tailfrill_Mesh_28
v 0.000031 0.125000 0.375000
v 0.000031 0.125000 0.062500
v 0.000031 0.000000 0.375000
v 0.000031 0.000000 0.062500
vt 0.687744 0.140869
vt 0.687744 0.171631
vt 0.765381 0.140869
vt 0.765381 0.171631
vt 0.765869 0.140869
vt 0.765869 0.171631
vt 0.843506 0.140869
vt 0.843506 0.171631
vn 1.0000 0.0000 0.0000
vn -1.0000 0.0000 0.0000
usemtl Material_0
s off
f 1/1/1 3/2/1 2/3/1
f 3/2/1 4/4/1 2/3/1
f 2/5/2 4/6/2 1/7/2
f 4/6/2 3/8/2 1/7/2
